<svg width="512" height="512" viewBox="0 0 512 512" fill="none" xmlns="http://www.w3.org/2000/svg">
  <rect width="512" height="512" rx="132" fill="#07111F"/>
  <rect x="40" y="40" width="432" height="432" rx="108" fill="url(#panel)"/>
  <rect x="96" y="108" width="320" height="296" rx="44" fill="#091221" stroke="#20314D" stroke-width="2"/>
  <rect x="128" y="144" width="116" height="18" rx="9" fill="#12304E"/>
  <rect x="128" y="176" width="168" height="16" rx="8" fill="#0E2741"/>
  <path d="M152 320L214 258L266 298L360 192" stroke="url(#line)" stroke-width="26" stroke-linecap="round" stroke-linejoin="round"/>
  <circle cx="152" cy="320" r="18" fill="#67E8F9"/>
  <circle cx="214" cy="258" r="18" fill="#38BDF8"/>
  <circle cx="266" cy="298" r="18" fill="#34D399"/>
  <circle cx="360" cy="192" r="18" fill="#A7F3D0"/>
  <rect x="286" y="320" width="108" height="52" rx="26" fill="url(#badge)"/>
  <text x="340" y="353" text-anchor="middle" fill="#F8FAFC" font-family="Inter, Arial, sans-serif" font-size="24" font-weight="700" letter-spacing="0.08em">PRO</text>
  <defs>
    <linearGradient id="panel" x1="76" y1="60" x2="438" y2="458" gradientUnits="userSpaceOnUse">
      <stop stop-color="#10233F"/>
      <stop offset="0.55" stop-color="#0C1A30"/>
      <stop offset="1" stop-color="#0A1628"/>
    </linearGradient>
    <linearGradient id="line" x1="152" y1="320" x2="360" y2="192" gradientUnits="userSpaceOnUse">
      <stop stop-color="#67E8F9"/>
      <stop offset="0.45" stop-color="#38BDF8"/>
      <stop offset="1" stop-color="#34D399"/>
    </linearGradient>
    <linearGradient id="badge" x1="292" y1="324" x2="384" y2="368" gradientUnits="userSpaceOnUse">
      <stop stop-color="#2563EB"/>
      <stop offset="1" stop-color="#0F766E"/>
    </linearGradient>
  </defs>
</svg>
